<svg xmlns="http://www.w3.org/2000/svg" viewBox="0 0 40 58" fill="none">
  <!-- flame outer -->
  <path d="M20 1C15.5 10 8 14.5 10.5 24C12.5 31.5 20 34.5 20 34.5C20 34.5 27.5 31.5 29.5 24C32 14.5 24.5 10 20 1Z" fill="#57068c"/>
  <!-- flame inner highlight -->
  <path d="M20 8C17.5 14 13 17 14.5 23.5C15.5 28 20 30 20 30C20 30 24.5 28 25.5 23.5C27 17 22.5 14 20 8Z" fill="#8900e1" opacity="0.45"/>
  <!-- torch cup top -->
  <path d="M12.5 33L14 38H26L27.5 33Z" fill="#57068c"/>
  <!-- torch handle -->
  <rect x="17" y="37" width="6" height="13" rx="0.5" fill="#57068c"/>
  <!-- base ring 1 -->
  <rect x="13" y="49" width="14" height="3.5" rx="1.5" fill="#57068c"/>
  <!-- base ring 2 -->
  <rect x="15.5" y="52" width="9" height="4" rx="1" fill="#57068c"/>
</svg>
